<svg width="33" height="32" viewBox="0 0 33 32" fill="none" xmlns="http://www.w3.org/2000/svg">
<path d="M19.4993 25.9992V19.9991C19.4993 19.7339 19.3939 19.4795 19.2064 19.292C19.0188 19.1044 18.7645 18.9991 18.4993 18.9991H14.4993C14.2341 18.9991 13.9797 19.1044 13.7922 19.292C13.6046 19.4795 13.4993 19.7339 13.4993 19.9991V25.9992C13.4993 26.2644 13.3939 26.5187 13.2064 26.7063C13.0189 26.8938 12.7646 26.9992 12.4994 26.9992L6.50012 27C6.36879 27 6.23874 26.9741 6.1174 26.9239C5.99606 26.8737 5.88581 26.8 5.79294 26.7071C5.70007 26.6143 5.62639 26.504 5.57613 26.3827C5.52587 26.2614 5.5 26.1313 5.5 26V14.4424C5.5 14.3031 5.52911 14.1653 5.58547 14.0379C5.64183 13.9105 5.72418 13.7963 5.82726 13.7026L15.8266 4.6107C16.0106 4.44334 16.2505 4.35059 16.4993 4.35059C16.7481 4.35058 16.9879 4.44331 17.172 4.61066L27.1727 13.7025C27.2758 13.7963 27.3582 13.9105 27.4145 14.0379C27.4709 14.1653 27.5 14.3031 27.5 14.4425V26C27.5 26.1313 27.4741 26.2614 27.4239 26.3827C27.3736 26.504 27.2999 26.6143 27.2071 26.7071C27.1142 26.8 27.0039 26.8737 26.8826 26.9239C26.7613 26.9742 26.6312 27 26.4999 27L20.4991 26.9992C20.2339 26.9992 19.9796 26.8938 19.7921 26.7063C19.6046 26.5187 19.4993 26.2644 19.4993 25.9992V25.9992Z" stroke="#454545" stroke-width="2" stroke-linecap="round" stroke-linejoin="round"/>
</svg>
