<svg width="33" height="32" viewBox="0 0 33 32" fill="none" xmlns="http://www.w3.org/2000/svg">
<path d="M21.5 3H11.5V8H21.5V3Z" stroke="#454545" stroke-width="2" stroke-linecap="round" stroke-linejoin="round"/>
<path d="M21.5 5H25.5C25.7652 5 26.0196 5.10536 26.2071 5.29289C26.3946 5.48043 26.5 5.73478 26.5 6V27C26.5 27.2652 26.3946 27.5196 26.2071 27.7071C26.0196 27.8946 25.7652 28 25.5 28H7.5C7.23478 28 6.98043 27.8946 6.79289 27.7071C6.60536 27.5196 6.5 27.2652 6.5 27V6C6.5 5.73478 6.60536 5.48043 6.79289 5.29289C6.98043 5.10536 7.23478 5 7.5 5H11.5" stroke="#454545" stroke-width="2" stroke-linecap="round" stroke-linejoin="round"/>
<path d="M12.5 19.5H20.5" stroke="#454545" stroke-width="2" stroke-linecap="round" stroke-linejoin="round"/>
<path d="M12.5 14.5H20.5" stroke="#454545" stroke-width="2" stroke-linecap="round" stroke-linejoin="round"/>
</svg>
