<svg width="33" height="32" viewBox="0 0 33 32" fill="none" xmlns="http://www.w3.org/2000/svg">
<path d="M16.5 14.5V21.5" stroke="#454545" stroke-width="2" stroke-linecap="round" stroke-linejoin="round"/>
<path d="M20 18H13" stroke="#454545" stroke-width="2" stroke-linecap="round" stroke-linejoin="round"/>
<path d="M27.501 9H5.50098C4.94869 9 4.50098 9.44772 4.50098 10V26C4.50098 26.5523 4.94869 27 5.50098 27H27.501C28.0533 27 28.501 26.5523 28.501 26V10C28.501 9.44772 28.0533 9 27.501 9Z" stroke="#454545" stroke-width="2" stroke-linecap="round" stroke-linejoin="round"/>
<path d="M21.5 9V6.5C21.5 5.96957 21.2893 5.46086 20.9142 5.08579C20.5391 4.71071 20.0304 4.5 19.5 4.5H13.5C12.9696 4.5 12.4609 4.71071 12.0858 5.08579C11.7107 5.46086 11.5 5.96957 11.5 6.5V9" stroke="#454545" stroke-width="2" stroke-linecap="round" stroke-linejoin="round"/>
</svg>
