<svg width="33" height="32" viewBox="0 0 33 32" fill="none" xmlns="http://www.w3.org/2000/svg">
<path d="M11.5 20C15.0899 20 18 17.0899 18 13.5C18 9.91015 15.0899 7 11.5 7C7.91015 7 5 9.91015 5 13.5C5 17.0899 7.91015 20 11.5 20Z" stroke="black" stroke-width="2" stroke-miterlimit="10"/>
<path d="M19.9268 7.24166C20.8208 6.98977 21.7584 6.93239 22.6765 7.07338C23.5945 7.21437 24.4717 7.55046 25.249 8.05901C26.0262 8.56756 26.6855 9.23677 27.1823 10.0216C27.6791 10.8063 28.002 11.6885 28.1292 12.6086C28.2564 13.5287 28.185 14.4653 27.9197 15.3555C27.6544 16.2456 27.2014 17.0686 26.5913 17.7689C25.9812 18.4693 25.2281 19.0307 24.3827 19.4155C23.5373 19.8003 22.6193 19.9994 21.6905 19.9995" stroke="black" stroke-width="2" stroke-linecap="round" stroke-linejoin="round"/>
<path d="M2.5 24.6746C3.51517 23.2306 4.86287 22.052 6.42931 21.2384C7.99576 20.4248 9.73497 20.0001 11.5001 20C13.2652 19.9999 15.0045 20.4246 16.571 21.238C18.1375 22.0515 19.4853 23.23 20.5006 24.6739" stroke="black" stroke-width="2" stroke-linecap="round" stroke-linejoin="round"/>
<path d="M21.6904 20C23.4557 19.9987 25.1953 20.4228 26.762 21.2364C28.3286 22.05 29.6761 23.2291 30.6905 24.6739" stroke="black" stroke-width="2" stroke-linecap="round" stroke-linejoin="round"/>
</svg>
